<svg width="305" height="305" viewBox="0 0 305 305" fill="none" xmlns="http://www.w3.org/2000/svg">
<circle cx="152.5" cy="152.5" r="152.5" fill="#213725"/>
<path fill-rule="evenodd" clip-rule="evenodd" d="M77.7431 187C78.2427 182.38 80.6293 179.264 90.3444 174.614C97.6839 168.466 98.5821 151.158 99.3753 135.875C99.7183 129.266 100.042 123.036 100.858 118.25C102.593 98.8748 115.25 60.125 152 60.125C188.75 60.125 201.407 98.8748 203.142 118.25C203.958 123.036 204.282 129.266 204.625 135.875C205.418 151.158 206.316 168.466 213.655 174.614C223.371 179.264 225.757 182.38 226.257 187C226.262 187.046 226.266 187.092 226.271 187.139C226.421 188.649 226.378 190.321 226.329 192.259C226.301 193.335 226.271 194.493 226.271 195.75H77.7287C77.7287 194.493 77.6989 193.335 77.6714 192.259C77.6215 190.321 77.5786 188.649 77.7287 187.139C77.7335 187.092 77.7383 187.046 77.7431 187ZM218.775 167.375C225.614 170.77 231.002 174.497 233.532 180.429C234.839 183.496 235.078 186.464 235.118 188.83C235.139 190.011 235.108 191.228 235.08 192.321L235.076 192.455C235.048 193.55 235.021 194.607 235.021 195.75V204.5H68.9787V195.75C68.9787 194.608 68.9515 193.551 68.9235 192.456L68.92 192.321C68.892 191.228 68.8614 190.011 68.8815 188.83C68.9218 186.464 69.1607 183.496 70.4684 180.429C72.9975 174.497 78.3862 170.77 85.2252 167.375C85.8784 166.546 86.7775 164.912 87.6258 161.929C88.6679 158.261 89.3425 153.619 89.8142 148.301C90.1852 144.115 90.4083 139.824 90.6323 135.507C90.6927 134.349 90.7526 133.19 90.816 132.03C91.0974 126.87 91.4425 121.581 92.1745 117.126C93.1886 106.388 97.127 90.568 105.991 77.1092C115.136 63.2229 129.95 51.375 152 51.375C174.05 51.375 188.864 63.2229 198.009 77.1092C206.873 90.568 210.811 106.388 211.825 117.126C212.557 121.581 212.903 126.87 213.184 132.03C213.247 133.19 213.307 134.349 213.368 135.507C213.592 139.824 213.815 144.115 214.186 148.301C214.657 153.619 215.332 158.261 216.374 161.929C217.222 164.912 218.122 166.546 218.775 167.375Z" fill="#FFD400"/>
<path fill-rule="evenodd" clip-rule="evenodd" d="M131.828 80.32C125.004 86.2114 120.826 94.2421 119.099 100.117C118.758 101.276 117.542 101.939 116.383 101.599C115.224 101.258 114.561 100.042 114.901 98.8827C116.819 92.3622 121.392 83.5492 128.969 77.0081C136.623 70.4001 147.322 66.1459 161.179 68.9174C162.363 69.1545 163.132 70.3069 162.895 71.4917C162.658 72.676 161.506 73.4442 160.321 73.2075C147.928 70.7291 138.574 74.4955 131.828 80.32Z" fill="#FFD400"/>
<path fill-rule="evenodd" clip-rule="evenodd" d="M128.699 213.489C130.983 212.701 133.473 213.915 134.261 216.199C140.076 233.062 163.924 233.062 169.739 216.199C170.527 213.915 173.017 212.701 175.301 213.489C177.585 214.277 178.799 216.767 178.011 219.051C169.485 243.777 134.515 243.777 125.989 219.051C125.201 216.767 126.415 214.277 128.699 213.489Z" fill="#FFD400"/>
</svg>